HIERARCHY
ROOT Hips
{
  OFFSET 1.44925e-005 102.336 -0.101585
  CHANNELS 6 Xposition Yposition Zposition Zrotation Xrotation Yrotation
  JOINT LeftUpLeg
  {
    OFFSET 8.9458 -8.66707 0.101652
    CHANNELS 3 Zrotation Xrotation Yrotation
    JOINT LeftLeg
    {
      OFFSET 0 -44.4227 1.3727
      CHANNELS 3 Zrotation Xrotation Yrotation
      JOINT LeftFoot
      {
        OFFSET -0.253549 -42.0924 -1.46059
        CHANNELS 3 Zrotation Xrotation Yrotation
        JOINT LeftToes
        {
          OFFSET -0.04 -4.41509 8.4991
          CHANNELS 3 Zrotation Xrotation Yrotation
          End Site
          {
            OFFSET 0.08 -0.047448 9.77979
          }
        }
      }
    }
  }
  JOINT Spine
  {
    OFFSET 0 11.8905 0
    CHANNELS 3 Zrotation Xrotation Yrotation
    JOINT Spine1
    {
      OFFSET 0 25.6574 0.127663
      CHANNELS 3 Zrotation Xrotation Yrotation
      JOINT RightShoulder
      {
        OFFSET -8.99 -0.362252 -0.22
        CHANNELS 3 Zrotation Xrotation Yrotation
        JOINT RightArm
        {
          OFFSET -10.2827 -0.00338 0.322123
          CHANNELS 3 Zrotation Xrotation Yrotation
          JOINT RightForeArm
          {
            OFFSET -26.364 0.099144 -1.42434
            CHANNELS 3 Zrotation Xrotation Yrotation
            JOINT RightHand
            {
              OFFSET -22.0324 0.085362 1.02216
              CHANNELS 3 Zrotation Xrotation Yrotation
              End Site
              {
                OFFSET -13.3284 -0.6 1.50291
              }
            }
          }
        }
      }
      JOINT LeftShoulder1
      {
        OFFSET 8.99 -0.362252 -0.22
        CHANNELS 3 Zrotation Xrotation Yrotation
        JOINT LeftArm
        {
          OFFSET 10.2827 -0.00337999 0.322123
          CHANNELS 3 Zrotation Xrotation Yrotation
          JOINT LeftForeArm
          {
            OFFSET 26.2597 0.099144 -1.42434
            CHANNELS 3 Zrotation Xrotation Yrotation
            JOINT LeftHand
            {
              OFFSET 22.0902 0.085362 1.02216
              CHANNELS 3 Zrotation Xrotation Yrotation
              End Site
              {
                OFFSET 13.419 -0.6 1.50291
              }
            }
          }
        }
      }
      JOINT Head
      {
        OFFSET 0 8.73416 0.011341
        CHANNELS 3 Zrotation Xrotation Yrotation
        End Site
        {
          OFFSET -0.29 12.7742 2.51395
        }
      }
    }
  }
  JOINT RightUpLeg
  {
    OFFSET -8.9458 -8.66707 0.101652
    CHANNELS 3 Zrotation Xrotation Yrotation
    JOINT RightLeg
    {
      OFFSET 0 -44.4227 1.3727
      CHANNELS 3 Zrotation Xrotation Yrotation
      JOINT RightFoot
      {
        OFFSET 0.253549 -42.0924 -1.46059
        CHANNELS 3 Zrotation Xrotation Yrotation
        JOINT RightToes
        {
          OFFSET 0.04 -4.41509 8.4991
          CHANNELS 3 Zrotation Xrotation Yrotation
          End Site
          {
            OFFSET -0.08 -0.137448 9.77979
          }
        }
      }
    }
  }
}
MOTION
Frames:	19
Frame Time:	0.0333333
-138.121 101.757 -0.54923 -5.56632 0.0392652 -91.5167 -2.33761 0.152138 1.11305 0.00469131 10.5428 17.4089 -0.732886 -10.3592 0.0397647 -1.37356e-009 8.75196e-006 -1.47123e-008 0.0909451 10.2446 0.311897 -1.37044 -1.89943 0.615756 37.7691 1.79265 0.0837196 40.7848 -14.1849 5.93139 7.20118 37.3333 10.1585 -6.46424 9.63508 -0.0905424 -44.2553 3.51852 -3.40831 -28.3013 -14.0058 -0.706979 -6.10493 38.9875 -12.1471 5.82328 9.61819 -0.917488 0.843817 -8.13351 -6.28113 0.19625 0.296634 -3.34917 0.116651 11.8551 -10.7696 2.076 -11.7697 -0.127694 0.0462048 0.000530889 0.662642 
-138.096 101.757 -0.55922 -5.57492 0.0264845 -91.505 -2.34642 0.140911 1.10293 -0.000438429 10.5495 17.4082 -0.719233 -10.3373 0.0397619 -1.37356e-009 8.75196e-006 -1.47123e-008 0.284488 10.3425 0.316435 -1.73623 -2.0522 0.692608 38.1132 1.79359 0.0540646 40.5372 -14.0433 5.74849 7.12378 37.0205 10.3387 -6.30808 9.64681 -0.190784 -43.9783 3.48186 -3.37743 -28.4804 -14.1277 -0.787811 -6.13802 39.3181 -12.0381 5.82328 9.61819 -0.917488 0.98757 -8.05857 -6.4152 0.182126 0.287346 -3.36387 0.126361 11.8659 -10.77 2.09723 -11.766 -0.127692 0.0462048 0.000530889 0.662642 
-138.057 101.757 -0.575717 -5.56293 -0.00677802 -91.4757 -2.36434 0.117577 1.08769 -0.0115834 10.5117 17.3973 -0.692853 -10.2832 0.0397551 -1.37356e-009 8.75196e-006 -1.47123e-008 0.314167 10.3261 0.290627 -1.88863 -2.15187 0.692968 38.2852 1.79827 0.0510731 40.5236 -14.2095 5.63776 7.1226 37.0421 10.3165 -6.1908 9.65726 -0.305976 -43.7663 3.45147 -3.34854 -28.6389 -14.3171 -0.782532 -6.16545 39.5799 -11.9382 5.82328 9.61819 -0.917488 1.06193 -7.91888 -6.41259 0.148838 0.238362 -3.39383 0.141337 11.8955 -10.7729 2.0841 -11.7602 -0.12769 0.0462048 0.000530889 0.662642 
-138.022 101.757 -0.594989 -5.53737 -0.0446238 -91.4398 -2.37166 0.0929643 1.08932 -0.047862 10.4502 17.3656 -0.675595 -10.228 0.0397481 -1.37356e-009 8.75196e-006 -1.47123e-008 0.0465029 10.1887 0.252211 -1.56314 -2.08741 0.584638 38.1158 1.80503 0.0805069 40.7794 -14.7063 5.69907 7.14825 37.7423 10.0829 -6.28619 9.64729 -0.180083 -43.8275 3.45285 -3.34592 -28.6446 -14.3954 -0.681002 -6.22643 39.3555 -11.8946 5.82328 9.61819 -0.917488 0.919607 -7.84766 -6.24247 0.11624 0.171498 -3.42608 0.156061 11.9332 -10.787 2.02358 -11.7576 -0.127688 0.0462048 0.000530889 0.662642 
-137.991 101.757 -0.615225 -5.52704 -0.0602517 -91.4109 -2.35277 0.0698454 1.11258 -0.0835705 10.4299 17.3185 -0.676436 -10.2075 0.0397456 -1.37356e-009 8.75196e-006 -1.47123e-008 -0.190962 10.0979 0.228131 -1.24266 -1.97179 0.494069 38.008 1.80839 0.0972056 40.8894 -15.0926 5.77421 7.07828 38.5945 9.95657 -6.35896 9.6303 0.11854 -43.9251 3.45313 -3.34569 -28.6305 -14.3193 -0.619523 -6.28364 38.896 -11.9134 5.82328 9.61819 -0.917488 0.750221 -7.8907 -6.14649 0.111927 0.135617 -3.43885 0.168565 11.9446 -10.8184 1.96677 -11.7517 -0.127686 0.0462048 0.000530889 0.662642 
-137.96 101.757 -0.63195 -5.54678 -0.0538501 -91.3982 -2.32612 0.0658463 1.13482 -0.0939592 10.4431 17.2874 -0.690064 -10.2104 0.0397459 -1.37356e-009 8.75196e-006 -1.47123e-008 -0.191081 10.1144 0.218022 -1.26379 -1.91833 0.487868 38.1352 1.80847 0.0866419 40.7499 -15.1282 5.77729 7.01042 38.9691 9.96878 -6.17396 9.6328 0.257381 -43.8772 3.45394 -3.34739 -28.6926 -14.2029 -0.626072 -6.22077 38.6926 -12.0299 5.82328 9.61819 -0.917488 0.756215 -7.94264 -6.20417 0.13034 0.150603 -3.43169 0.174079 11.9192 -10.844 1.95737 -11.7356 -0.127678 0.0462048 0.000530889 0.662642 
-137.929 101.757 -0.643172 -5.58934 -0.0554961 -91.4083 -2.32492 0.105274 1.1362 -0.0870845 10.421 17.302 -0.707488 -10.1944 0.0397439 -1.37356e-009 8.75196e-006 -1.47123e-008 -0.136817 10.1678 0.214292 -1.3812 -1.91629 0.509126 38.2448 1.80878 0.078191 40.635 -14.9657 5.77685 7.12254 38.7926 9.88779 -5.86818 9.65441 0.0981412 -43.7985 3.45524 -3.35041 -28.7623 -14.1716 -0.627199 -6.07952 38.805 -12.1718 5.82328 9.61819 -0.917488 0.869444 -7.92128 -6.27063 0.133441 0.188973 -3.43507 0.172581 11.8972 -10.8271 1.98487 -11.7172 -0.12767 0.0462048 0.000530889 0.662642 
-137.901 101.757 -0.65108 -5.63157 -0.0757937 -91.4436 -2.34635 0.165763 1.12716 -0.0868036 10.3582 17.3549 -0.720437 -10.1557 0.0397391 -1.37356e-009 8.75196e-006 -1.47123e-008 -0.200499 10.1959 0.211546 -1.33565 -1.89834 0.505093 38.1985 1.80915 0.0844733 40.6582 -14.8241 5.82145 7.34153 38.4244 9.70364 -5.6909 9.67327 -0.159539 -43.8013 3.45703 -3.3544 -28.7795 -14.2393 -0.611387 -6.05735 38.8994 -12.1729 5.82328 9.61819 -0.917488 0.927187 -7.86874 -6.2599 0.108189 0.210165 -3.4623 0.172646 11.9091 -10.762 2.01465 -11.7085 -0.127666 0.0462048 0.000530889 0.662642 
-137.874 101.757 -0.655336 -5.65024 -0.0876772 -91.5007 -2.35518 0.185693 1.13022 -0.097231 10.3286 17.4153 -0.725709 -10.1332 0.0397363 -1.37356e-009 8.75196e-006 -1.47123e-008 -0.262871 10.1967 0.209664 -1.27742 -1.85119 0.496424 38.172 1.80959 0.0873586 40.6606 -14.7665 5.85385 7.42515 38.1936 9.64846 -5.62637 9.68111 -0.283593 -43.813 3.45931 -3.36042 -28.7792 -14.3239 -0.617575 -6.18297 38.8244 -12.0354 5.82328 9.61819 -0.917488 0.941905 -7.81531 -6.22896 0.0877328 0.197643 -3.48036 0.176967 11.9314 -10.6851 2.02746 -11.7066 -0.127665 0.0462048 0.000530889 0.662642 
-137.844 101.757 -0.653696 -5.64636 -0.0749906 -91.5729 -2.33971 0.152373 1.14762 -0.107952 10.3584 17.4713 -0.728539 -10.1405 0.0397372 -1.37356e-009 8.75196e-006 -1.47123e-008 -0.217562 10.189 0.20937 -1.34677 -1.81361 0.502129 38.2318 1.81008 0.0826606 40.6045 -14.787 5.83766 7.3161 38.2287 9.77218 -5.54711 9.68331 -0.25061 -43.798 3.462 -3.36498 -28.7685 -14.3527 -0.617863 -6.2407 38.7674 -11.977 5.82328 9.61819 -0.917488 0.988659 -7.71146 -6.20432 0.0976221 0.160679 -3.45999 0.172813 11.9429 -10.6282 2.01242 -11.7008 -0.127662 0.0462048 0.000530889 0.662642 
-137.811 101.757 -0.651047 -5.64755 -0.0603887 -91.6475 -2.32418 0.12445 1.16464 -0.118603 10.386 17.5286 -0.728478 -10.1467 0.039738 -1.37356e-009 8.75196e-006 -1.47123e-008 -0.193609 10.1883 0.211574 -1.36647 -1.79347 0.500098 38.2115 1.81061 0.0868969 40.6321 -14.8772 5.82606 7.17687 38.4682 9.88266 -5.47391 9.6842 -0.189746 -43.8462 3.4684 -3.37053 -28.7051 -14.3337 -0.578331 -6.12778 38.862 -12.091 5.82328 9.61819 -0.917488 1.00446 -7.56954 -6.15512 0.119219 0.118633 -3.42422 0.152096 11.9688 -10.5902 1.968 -11.6903 -0.127657 0.0462048 0.000530889 0.662642 
-137.776 101.757 -0.652772 -5.67847 -0.0637361 -91.7024 -2.32275 0.144283 1.1744 -0.132571 10.3751 17.5757 -0.721331 -10.1323 0.0397362 -1.37356e-009 8.75196e-006 -1.47123e-008 -0.283592 10.2108 0.220007 -1.22657 -1.7527 0.481773 38.0824 1.81119 0.0991708 40.7486 -14.9808 5.85612 7.11412 38.6798 9.89902 -5.44776 9.68759 -0.247447 -43.9589 3.48168 -3.38003 -28.6176 -14.3054 -0.562417 -6.01494 38.9707 -12.2039 5.82328 9.61819 -0.917488 0.921417 -7.49973 -6.10448 0.126727 0.0955117 -3.41154 0.128715 12.0244 -10.5604 1.92925 -11.6824 -0.127654 0.0462048 0.000530889 0.662642 
-137.739 101.754 -0.660245 -5.73891 -0.0713785 -91.724 -2.3229 0.187862 1.18296 -0.141147 10.3725 17.5911 -0.703187 -10.1171 0.0397343 -1.37356e-009 8.75196e-006 -1.47123e-008 -0.36128 10.2696 0.230194 -1.11957 -1.67942 0.471525 38.0313 1.8118 0.100667 40.7985 -15.031 5.88757 7.07339 38.6576 9.93899 -5.40545 9.6975 -0.459277 -44.0134 3.48926 -3.38624 -28.5897 -14.2683 -0.631365 -6.04811 38.9357 -12.178 5.82328 9.61819 -0.917488 0.83714 -7.53791 -6.09346 0.125007 0.109517 -3.41814 0.117057 12.0776 -10.5395 1.94531 -11.6823 -0.127654 0.0462048 0.000530889 0.662642 
-137.698 101.747 -0.664132 -5.8082 -0.0708408 -91.7318 -2.32504 0.219365 1.1944 -0.139159 10.4094 17.5872 -0.689849 -10.1161 0.0397342 -1.37356e-009 8.75196e-006 -1.47123e-008 -0.34137 10.3626 0.229244 -1.16177 -1.62209 0.480183 38.1134 1.81242 0.0898944 40.7451 -15.0529 5.88561 7.01323 38.4949 10.0363 -5.33213 9.70886 -0.679914 -43.9824 3.48879 -3.38609 -28.6262 -14.2042 -0.715487 -6.12598 38.8003 -12.1206 5.82328 9.61819 -0.917488 0.843904 -7.5896 -6.08648 0.12754 0.144208 -3.41316 0.106529 12.1112 -10.5273 2.01232 -11.6907 -0.127657 0.0462048 0.000530889 0.662642 
-137.66 101.742 -0.666096 -5.85218 -0.0761448 -91.7542 -2.33271 0.231149 1.20278 -0.140805 10.4341 17.6016 -0.693591 -10.1109 0.0397336 -1.37356e-009 8.75196e-006 -1.47123e-008 -0.341588 10.4458 0.231554 -1.18149 -1.60883 0.483051 38.1732 1.81306 0.0842972 40.7061 -15.144 5.8821 6.98326 38.4988 10.0591 -5.30525 9.71132 -0.716662 -43.9589 3.48543 -3.38362 -28.673 -14.1632 -0.722548 -6.11886 38.7273 -12.1451 5.82328 9.61819 -0.917488 0.853556 -7.58299 -6.04492 0.125737 0.148517 -3.39007 0.0815781 12.1487 -10.5182 2.07492 -11.701 -0.127662 0.0462048 0.000530889 0.662642 
-137.631 101.741 -0.667237 -5.83983 -0.0967087 -91.7785 -2.34858 0.216314 1.19939 -0.157083 10.3983 17.633 -0.700383 -10.0832 0.0397301 -1.37356e-009 8.75196e-006 -1.47123e-008 -0.437531 10.445 0.243912 -1.0595 -1.58878 0.468433 38.1354 1.81371 0.0898781 40.7359 -15.3516 5.90983 7.00393 38.7943 9.94923 -5.33632 9.7044 -0.565212 -43.9657 3.48289 -3.3816 -28.7294 -14.2346 -0.690162 -6.07794 38.8161 -12.1683 5.82328 9.61819 -0.917488 0.788414 -7.52426 -6.01075 0.11534 0.0947326 -3.36996 0.0548261 12.186 -10.518 2.09908 -11.7013 -0.127662 0.0462048 0.000530889 0.662642 
-137.612 101.741 -0.667798 -5.78109 -0.116069 -91.7623 -2.35705 0.164766 1.18333 -0.174688 10.3421 17.6361 -0.69057 -10.046 0.0397256 -1.37356e-009 8.75196e-006 -1.47123e-008 -0.521206 10.354 0.244105 -0.930246 -1.5193 0.442911 38.1019 1.81435 0.0934184 40.7667 -15.5945 5.93722 7.02222 39.1604 9.82212 -5.38213 9.69663 -0.409808 -43.9404 3.47953 -3.37851 -28.8188 -14.3976 -0.698995 -6.0839 39.0184 -12.11 5.82328 9.61819 -0.917488 0.77339 -7.40826 -6.0139 0.101782 0.0192176 -3.36951 0.0530132 12.183 -10.5394 2.09622 -11.6885 -0.127656 0.0462048 0.000530889 0.662642 
-137.594 101.741 -0.668025 -5.73232 -0.122166 -91.7032 -2.35644 0.100297 1.1642 -0.177775 10.3334 17.5953 -0.669541 -10.0217 0.0397226 -1.37356e-009 8.75196e-006 -1.47123e-008 -0.511039 10.2806 0.221664 -0.916149 -1.451 0.419635 38.1483 1.81498 0.0893874 40.74 -15.7313 5.92348 7.01908 39.3135 9.77433 -5.4552 9.69303 -0.39747 -43.8749 3.47086 -3.37113 -28.9043 -14.4831 -0.723296 -6.08092 39.1552 -12.0804 5.82328 9.61819 -0.917488 0.929278 -7.23988 -6.00346 0.0901081 -0.0240405 -3.38728 0.0762336 12.1507 -10.5754 2.08424 -11.675 -0.12765 0.0462048 0.000530889 0.662642 
-137.571 101.741 -0.668161 -5.73424 -0.126447 -91.6542 -2.3606 0.0677012 1.15325 -0.175342 10.3684 17.5562 -0.655626 -10.0108 0.0397212 -1.37356e-009 8.75196e-006 -1.47123e-008 -0.476201 10.3103 0.200159 -0.950357 -1.43949 0.40569 38.2298 1.81559 0.0826585 40.6756 -15.7204 5.89451 7.0447 39.2325 9.75742 -5.51046 9.69556 -0.524017 -43.8079 3.46358 -3.36674 -28.9447 -14.3761 -0.698989 -6.0085 39.074 -12.1853 5.82328 9.61819 -0.917488 1.13289 -7.11437 -5.9521 0.0764349 -0.0301425 -3.40933 0.0963896 12.1512 -10.6007 2.07237 -11.6709 -0.127648 0.0462048 0.000530889 0.662642 
